HIERARCHY
ROOT Hips
{
 OFFSET 0.000000 0.000000 0.000000
 CHANNELS 6 Xposition Yposition Zposition Yrotation Xrotation Zrotation
 JOINT Chest
 {
  OFFSET 0.000000 9.588913 -0.003946
  CHANNELS 3 Yrotation Xrotation Zrotation
  JOINT Chest2
  {
   OFFSET 0.000000 9.541882 0.008053
   CHANNELS 3 Yrotation Xrotation Zrotation
   JOINT Chest3
   {
    OFFSET 0.000000 9.501360 0.000000
    CHANNELS 3 Yrotation Xrotation Zrotation
    JOINT Chest4
    {
     OFFSET 0.000000 9.491660 0.000000
     CHANNELS 3 Yrotation Xrotation Zrotation
     JOINT Neck
     {
      OFFSET 0.000000 14.331917 0.000000
      CHANNELS 3 Yrotation Xrotation Zrotation
      JOINT Head
      {
       OFFSET 0.000000 8.884799 0.017034
       CHANNELS 3 Yrotation Xrotation Zrotation
       End Site
       {
        OFFSET 0.000000 16.896195 0.008993
       }
      }
     }
     JOINT RightCollar
     {
      OFFSET -2.923010 9.499495 0.000000
      CHANNELS 3 Yrotation Xrotation Zrotation
      JOINT RightShoulder
      {
       OFFSET -13.795216 0.000000 0.000000
       CHANNELS 3 Yrotation Xrotation Zrotation
       JOINT RightElbow
       {
        OFFSET -30.272209 0.000000 0.000000
        CHANNELS 3 Yrotation Xrotation Zrotation
        JOINT RightWrist
        {
         OFFSET -24.478199 0.000000 0.000000
         CHANNELS 3 Yrotation Xrotation Zrotation
         End Site
         {
          OFFSET -18.090752 0.000000 0.000000
         }
        }
       }
      }
     }
     JOINT LeftCollar
     {
      OFFSET 2.923010 9.499495 0.000000
      CHANNELS 3 Yrotation Xrotation Zrotation
      JOINT LeftShoulder
      {
       OFFSET 13.795216 0.000000 0.000000
       CHANNELS 3 Yrotation Xrotation Zrotation
       JOINT LeftElbow
       {
        OFFSET 30.272209 0.000000 0.000000
        CHANNELS 3 Yrotation Xrotation Zrotation
        JOINT LeftWrist
        {
         OFFSET 24.478199 0.000000 0.000000
         CHANNELS 3 Yrotation Xrotation Zrotation
         End Site
         {
          OFFSET 18.090752 0.000000 0.000000
         }
        }
       }
      }
     }
    }
   }
  }
 }
 JOINT RightHip
 {
  OFFSET -7.826875 0.019532 0.001973
  CHANNELS 3 Yrotation Xrotation Zrotation
  JOINT RightKnee
  {
   OFFSET 0.000000 -40.546152 -0.001885
   CHANNELS 3 Yrotation Xrotation Zrotation
   JOINT RightAnkle
   {
    OFFSET 0.000000 -39.417092 -0.003189
    CHANNELS 3 Yrotation Xrotation Zrotation
    JOINT RightToe
    {
     OFFSET 0.000000 -7.579396 17.243563
     CHANNELS 3 Yrotation Xrotation Zrotation
     End Site
     {
      OFFSET 0.000000 -1.500329 6.694466
     }
    }
   }
  }
 }
 JOINT LeftHip
 {
  OFFSET 7.826875 0.019532 0.001973
  CHANNELS 3 Yrotation Xrotation Zrotation
  JOINT LeftKnee
  {
   OFFSET 0.000000 -40.546152 -0.001885
   CHANNELS 3 Yrotation Xrotation Zrotation
   JOINT LeftAnkle
   {
    OFFSET 0.000000 -39.417092 -0.003189
    CHANNELS 3 Yrotation Xrotation Zrotation
    JOINT LeftToe
    {
     OFFSET 0.000000 -7.579396 17.243563
     CHANNELS 3 Yrotation Xrotation Zrotation
     End Site
     {
      OFFSET 0.000000 -1.500329 6.694466
     }
    }
   }
  }
 }
}
MOTION
Frames: 7
Frame Time: 0.008333
283.631037 86.601630 -325.473611 129.103717 -14.759324 3.295135 -0.392643 3.838099 0.539814 -0.202506 2.263139 0.265739 -0.251538 2.829066 0.330988 -0.202503 2.263136 0.265741 -2.872880 27.008979 -0.048643 -3.140620 3.946683 0.600523 -2.044256 8.130536 -1.849866 -11.709468 7.501464 89.910126 0.804555 -0.826549 -1.268742 -0.941450 -2.103243 -0.786384 -0.970585 0.173109 3.152237 16.993784 -2.813623 -77.642115 -29.070971 -6.317269 -12.546852 0.178048 1.651531 -6.152672 -6.962326 -4.791229 -14.129173 4.856708 15.796011 1.527953 -2.214528 0.406277 13.793870 -0.349356 2.951251 -0.103663 11.881020 22.794544 5.841506 7.304492 9.365685 2.072551 5.098794 -13.038804 -7.968910 0.006298 -0.230108 -0.166781
284.122550 86.523986 -325.849059 129.372109 -14.596367 3.450741 -0.465553 3.731554 0.481404 -0.255368 2.203563 0.237783 -0.317836 2.754614 0.295748 -0.255365 2.203559 0.237785 -2.895047 27.068704 -0.041755 -3.167430 4.023790 0.613032 -2.110022 8.187760 -1.848561 -11.676380 7.469363 90.070856 0.595555 -0.768069 -1.330896 -1.095267 -2.052419 -0.662217 -1.065745 0.273467 3.122342 16.735072 -2.777396 -77.874347 -29.121009 -6.063775 -12.610321 0.433374 1.815051 -6.360256 -6.812484 -4.929147 -14.165669 4.473460 14.390307 1.017472 -2.322596 0.766648 13.588480 -0.338186 3.308847 0.280236 11.988400 23.115142 5.876309 7.145870 9.155855 2.031721 4.963693 -13.090553 -8.046544 0.006433 -0.320239 -0.197590
284.643084 86.444823 -326.224362 129.664423 -14.504106 3.628315 -0.517807 3.676217 0.413002 -0.314054 2.149105 0.209141 -0.391407 2.686554 0.259631 -0.314051 2.149100 0.209143 -2.918275 27.119606 -0.040077 -3.194112 4.089681 0.620079 -2.184354 8.236837 -1.845146 -11.641824 7.437103 90.224773 0.396119 -0.694289 -1.387521 -1.257210 -1.998694 -0.529258 -1.155516 0.374985 3.089888 16.444333 -2.720181 -78.122846 -29.135190 -5.782203 -12.640250 0.680641 1.988624 -6.561237 -6.646923 -4.988790 -14.244583 4.177202 13.110314 0.543392 -2.401898 0.923394 13.374684 -0.313311 3.605600 0.609638 12.082152 23.473786 5.918695 6.998072 9.036663 2.021435 4.812092 -13.170762 -8.162148 0.005508 -0.428055 -0.223216
285.173094 86.358810 -326.589813 130.112285 -14.358180 3.818199 -0.668039 3.537818 0.310657 -0.378306 2.101043 0.181378 -0.471918 2.626482 0.224591 -0.378302 2.101036 0.181379 -2.946630 27.158384 -0.047201 -3.224276 4.140228 0.618649 -2.264100 8.275916 -1.835377 -11.609259 7.404706 90.363521 0.207107 -0.615001 -1.431439 -1.418107 -1.940290 -0.398635 -1.241585 0.480623 3.045611 16.141713 -2.655281 -78.376517 -29.111100 -5.455630 -12.655573 0.908561 2.168771 -6.750072 -6.611388 -5.116212 -14.393665 4.024162 11.977238 0.160934 -2.472564 0.849601 13.081130 -0.281858 3.846870 0.932863 11.990566 23.701414 5.896600 6.885832 8.998608 2.041298 4.637455 -13.235095 -8.303773 0.009195 -0.541800 -0.240674
285.736650 86.271138 -326.952373 130.588348 -14.292698 3.985011 -0.796318 3.456620 0.233867 -0.448563 2.060039 0.156017 -0.559915 2.575229 0.192530 -0.448560 2.060032 0.156017 -2.979804 27.183997 -0.062282 -3.257764 4.174074 0.609597 -2.338235 8.307058 -1.815236 -11.586813 7.374309 90.484988 0.032512 -0.530035 -1.461711 -1.574560 -1.880822 -0.275549 -1.322132 0.593481 2.988003 15.841517 -2.595295 -78.627126 -29.042818 -5.076918 -12.667634 1.114174 2.355321 -6.927820 -6.605399 -5.147780 -14.574854 4.042894 10.990179 -0.070091 -2.547545 0.542758 12.599773 -0.257261 4.031822 1.300759 11.854467 23.973786 5.908373 6.804146 9.053541 2.099518 4.473987 -13.346421 -8.487880 0.010566 -0.655325 -0.258656
286.326683 86.180064 -327.309035 131.123710 -14.267365 4.126883 -0.933901 3.389023 0.169465 -0.522857 2.026336 0.134809 -0.652925 2.533099 0.165645 -0.522853 2.026328 0.134809 -3.018272 27.196062 -0.082575 -3.295722 4.190778 0.596045 -2.402356 8.336564 -1.782663 -11.579269 7.346473 90.591659 -0.120163 -0.440684 -1.482627 -1.727327 -1.822840 -0.158833 -1.395817 0.713192 2.921763 15.547881 -2.543796 -78.872012 -28.923506 -4.645257 -12.683835 1.296681 2.549045 -7.095523 -6.622342 -5.108250 -14.795441 4.182907 10.121195 -0.141202 -2.617222 0.134624 11.888682 -0.232396 4.086105 1.725700 11.634607 24.238775 5.928295 6.724980 9.186008 2.199648 4.347036 -13.471806 -8.701256 0.006755 -0.772937 -0.284843
286.941726 86.085196 -327.658446 131.702329 -14.273377 4.240904 -1.077536 3.326484 0.118538 -0.596715 2.000273 0.119503 -0.745353 2.500522 0.146143 -0.596712 2.000265 0.119502 -3.065096 27.194596 -0.107789 -3.341591 4.190495 0.579010 -2.456260 8.367620 -1.742172 -11.582237 7.324618 90.687864 -0.244150 -0.357012 -1.495240 -1.874523 -1.764702 -0.049133 -1.461493 0.834709 2.848709 15.253226 -2.496036 -79.112968 -28.751010 -4.166533 -12.703738 1.457473 2.742797 -7.245183 -6.599390 -4.997508 -15.026044 4.353146 9.382089 -0.104119 -2.665007 -0.267200 11.018057 -0.202623 3.948335 2.148918 11.359278 24.490172 5.963334 6.631672 9.391525 2.341527 4.259911 -13.585550 -8.932760 -0.006682 -0.918333 -0.325800
